#!OML:ASF H:\GeneralSubjects\Female5\Project 1\Capture day 1\Session 1\Female5.ASF
:FULLY-SPECIFIED
:DEGREES
1082
root -30.9841 15.7436 2.54249 916.238 -45.1135 542.651
lowerback 9.43636 3.16671 -1.98458
upperback -12.8226 3.44755 1.17871
thorax -20.5581 1.6498 1.69459
lowerneck -13.0444 5.73281 9.43962
upperneck 34.4789 2.95408 2.79174
head 14.2075 2.2517 -0.190913
rclavicle 1.33434e-014 1.78906e-014
rhumerus -42.3347 26.3905 -86.1042
rradius 37.6134
rwrist -14.716
rhand -24.2862 -18.6124
rfingers 7.12502
rthumb 2.20091 -48.5808
lclavicle 1.33434e-014 1.78906e-014
lhumerus -40.4466 5.19562 66.8187
lradius 32.7762
lwrist -7.41814
lhand -32.5116 38.3404
lfingers 7.12502
lthumb -5.74264 68.2426
rfemur -2.50194 -12.7252 31.2927
rtibia 18.0931
rfoot -38.5801 -29.2947
rtoes 3.39103
lfemur -28.9449 -5.8373 -29.8921
ltibia 13.9188
lfoot -19.9079 18.785
ltoes -57.375
1083
root -31.0685 15.7454 2.63979 916.4 -42.8589 542.648
lowerback 9.43489 3.21635 -2.13858
upperback -12.7945 3.4668 1.14046
thorax -20.5307 1.67075 1.73206
lowerneck -13.3927 5.52891 9.08117
upperneck 34.5426 2.58549 3.01659
head 14.2847 2.06373 -0.0957316
rclavicle -1.88348e-014 1.07344e-014
rhumerus -42.5861 27.7123 -87.8114
rradius 38.4719
rwrist -13.7579
rhand -24.0498 -18.3315
rfingers 7.12502
rthumb 2.4293 -48.2974
lclavicle -1.88348e-014 1.07344e-014
lhumerus -39.9396 5.14063 67.0572
lradius 33.8373
lwrist -6.07574
lhand -31.4175 38.8218
lfingers 7.12502
lthumb -4.6863 68.7499
rfemur -2.82698 -14.1985 32.6282
rtibia 19.4052
rfoot -39.1349 -29.1311
rtoes 4.40144
lfemur -28.7632 -5.70895 -30.0367
ltibia 13.4627
lfoot -21.8776 19.8346
ltoes -57.0073
1084
root -31.1607 15.7461 2.73612 916.543 -40.5562 542.553
lowerback 9.35326 3.22604 -2.28404
upperback -12.7593 3.42945 1.09343
thorax -20.4311 1.66344 1.77319
lowerneck -13.4066 5.38789 8.78541
upperneck 34.3754 2.36939 3.20493
head 14.1912 1.93946 -0.0113675
rclavicle -1.69961e-014 6.95746e-015
rhumerus -43.2954 29.3262 -89.7011
rradius 39.567
rwrist -12.7763
rhand -24.0957 -18.2067
rfingers 7.12502
rthumb 2.3849 -48.1731
lclavicle -1.69961e-014 6.95746e-015
lhumerus -39.7397 5.14275 67.4342
lradius 34.9275
lwrist -6.00049
lhand -31.4201 38.3513
lfingers 7.12502
lthumb -4.68875 68.2794
rfemur -2.66629 -15.9489 33.4828
rtibia 20.3395
rfoot -39.2383 -28.1517
rtoes 5.61409
lfemur -28.4164 -5.51672 -30.3686
ltibia 12.9289
lfoot -23.698 20.4753
ltoes -57.2781
1085
root -31.2587 15.747 2.83461 916.616 -38.2537 542.477
lowerback 9.22872 3.27769 -2.18586
upperback -12.7049 3.48591 0.949954
thorax -20.2492 1.65115 1.54122
lowerneck -13.2714 5.35674 8.68638
upperneck 34.1713 2.25994 3.43726
head 14.0615 1.89025 0.0717676
rclavicle -4.20181e-014 -1.0138e-014
rhumerus -44.123 31.0236 -91.6456
rradius 40.4808
rwrist -12.1482
rhand -23.9945 -18.2225
rfingers 7.12502
rthumb 2.48268 -48.1878
lclavicle -4.20181e-014 -1.0138e-014
lhumerus -39.4545 4.96058 67.915
lradius 36.1356
lwrist -5.87639
lhand -31.9712 38.5157
lfingers 7.12502
lthumb -5.22091 68.4314
rfemur -2.70185 -18.3431 33.915
rtibia 22.124
rfoot -38.8099 -26.608
rtoes 6.80976
lfemur -28.009 -5.33416 -30.7342
ltibia 12.3861
lfoot -25.6237 20.8585
ltoes -55.8282
1086
root -31.3525 15.7486 2.93698 916.786 -35.8268 542.323
lowerback 9.09208 3.39137 -2.10842
upperback -12.6739 3.60665 0.710086
thorax -20.0877 1.65919 1.19199
lowerneck -13.2779 5.32904 8.67764
upperneck 34.0344 2.10744 3.67064
head 13.9981 1.83676 0.137276
rclavicle 2.71714e-014 2.62396e-014
rhumerus -44.5206 32.6277 -93.4817
rradius 40.8017
rwrist -11.5784
rhand -23.4743 -18.1244
rfingers 7.12502
rthumb 2.98504 -48.0832
lclavicle 2.71714e-014 2.62396e-014
lhumerus -39.1629 4.72577 68.3854
lradius 37.4481
lwrist -5.488
lhand -32.2154 38.6083
lfingers 7.12502
lthumb -5.45667 68.518
rfemur -2.64507 -20.3486 34.1433
rtibia 23.5219
rfoot -37.4673 -25.7569
rtoes 8.67478
lfemur -27.7529 -4.81497 -31.259
ltibia 11.9184
lfoot -27.1164 21.0983
ltoes -55.9394
1087
root -31.4375 15.7485 3.03952 916.948 -33.3045 542.294
lowerback 9.11058 3.43805 -2.46696
upperback -12.8743 3.56594 0.82812
thorax -20.4219 1.68659 1.54494
lowerneck -12.8817 5.28996 8.60061
upperneck 33.9836 2.1239 3.48582
head 13.8846 1.77847 0.0626432
rclavicle -6.41081e-015 4.01545e-014
rhumerus -45.333 34.5275 -95.3334
rradius 40.9412
rwrist -10.605
rhand -22.7608 -17.9375
rfingers 7.12502
rthumb 3.67409 -47.8856
lclavicle -6.41081e-015 4.01545e-014
lhumerus -39.8703 4.99372 68.887
lradius 39.0673
lwrist -5.11007
lhand -32.2295 38.366
lfingers 7.12502
lthumb -5.47033 68.2754
rfemur -2.60583 -21.3075 34.6298
rtibia 24.5704
rfoot -36.1858 -25.5371
rtoes 11.9252
lfemur -27.7387 -3.77802 -31.7173
ltibia 11.5289
lfoot -28.0481 21.1776
ltoes -52.7091
1088
root -31.5298 15.7494 3.15167 917.162 -30.7464 542.128
lowerback 8.95197 3.62994 -2.24437
upperback -12.9436 3.7926 0.508419
thorax -20.3662 1.70302 0.994603
lowerneck -12.8267 5.08571 8.30391
upperneck 33.7713 1.76805 3.82208
head 13.758 1.60796 0.182015
rclavicle -5.9536e-014 -6.15239e-014
rhumerus -45.7352 35.5284 -96.9292
rradius 41.2055
rwrist -9.96497
rhand -22.0846 -18.8535
rfingers 7.12502
rthumb 4.32704 -48.7893
lclavicle -5.9536e-014 -6.15239e-014
lhumerus -40.0812 4.47239 69.5301
lradius 40.8355
lwrist -4.59041
lhand -32.3879 38.2281
lfingers 7.12502
lthumb -5.62324 68.1335
rfemur -2.55317 -22.1661 34.7033
rtibia 25.6685
rfoot -35.053 -25.5548
rtoes 9.19739
lfemur -27.7608 -2.54415 -32.4497
ltibia 11.1664
lfoot -28.1224 22.1251
ltoes -54.0296
1089
root -31.6191 15.7499 3.25821 917.188 -28.177 541.999
lowerback 8.97506 3.73889 -2.26495
upperback -12.9003 3.89669 0.33037
thorax -20.3132 1.72487 0.770643
lowerneck -13.1404 5.02994 8.25571
upperneck 33.6835 1.62494 3.89446
head 13.784 1.54199 0.198914
rclavicle 1.05666e-014 4.77083e-015
rhumerus -46.2804 36.6622 -98.3137
rradius 41.723
rwrist -9.52456
rhand -21.3703 -20.3039
rfingers 7.12502
rthumb 5.01684 -50.2245
lclavicle 1.05666e-014 4.77083e-015
lhumerus -40.3367 4.19544 70.1791
lradius 42.7528
lwrist -3.8248
lhand -32.6883 37.5681
lfingers 7.12502
lthumb -5.91326 67.4656
rfemur -2.18162 -21.9531 34.8178
rtibia 26.2939
rfoot -34.8471 -25.9267
rtoes 4.25586
lfemur -27.5338 -1.77613 -32.9682
ltibia 10.6675
lfoot -28.6224 23.6711
ltoes -55.7378
1090
root -31.7068 15.7498 3.36408 917.132 -25.6442 542.056
lowerback 8.9317 3.77115 -2.14576
upperback -12.8675 3.92997 0.242064
thorax -20.218 1.70347 0.598518
lowerneck -13.4413 5.02847 8.2
upperneck 33.6511 1.55914 3.95231
head 13.8334 1.50507 0.223371
rclavicle 2.91965e-014 -5.01931e-015
rhumerus -46.6244 37.5206 -99.4473
rradius 41.798
rwrist -8.73751
rhand -20.8789 -20.0289
rfingers 7.12502
rthumb 5.49129 -49.9377
lclavicle 2.91965e-014 -5.01931e-015
lhumerus -40.7038 4.13795 70.7193
lradius 44.6126
lwrist -3.07705
lhand -30.7387 36.71
lfingers 7.12502
lthumb -4.03078 66.6516
rfemur -1.74027 -21.1338 35.1487
rtibia 26.6127
rfoot -35.1173 -25.662
rtoes 2.56211
lfemur -26.7821 -4.79877 -32.2265
ltibia 9.30701
lfoot -33.4003 25.6943
ltoes -51.8515
1091
root -31.7922 15.7497 3.47682 917.119 -23.168 542.304
lowerback 8.81049 3.72856 -1.85123
upperback -13.0467 3.87637 0.332319
thorax -20.356 1.62007 0.567754
lowerneck -12.9083 5.07138 8.04461
upperneck 33.412 1.67802 3.9777
head 13.6067 1.50406 0.258066
rclavicle 1.00448e-014 2.38542e-015
rhumerus -47.5082 38.451 -100.758
rradius 41.7136
rwrist -8.20506
rhand -21.0111 -17.7507
rfingers 7.12502
rthumb 5.3636 -47.6628
lclavicle 1.00448e-014 2.38542e-015
lhumerus -41.6841 4.3556 71.1623
lradius 46.3604
lwrist -2.88549
lhand -30.3959 36.7466
lfingers 7.12502
lthumb -3.69979 66.6943
rfemur -1.37859 -20.3385 35.5651
rtibia 26.6912
rfoot -35.0409 -25.2053
rtoes 0.771132
lfemur -27.0376 -3.45034 -32.4343
ltibia 9.16499
lfoot -33.257 26.5481
ltoes -49.9445
1092
root -31.879 15.7509 3.59271 917.199 -20.6899 542.369
lowerback 8.72363 3.73098 -1.59855
upperback -13.2513 3.85468 0.323215
thorax -20.551 1.54172 0.433612
lowerneck -12.238 5.08131 7.83848
upperneck 33.0048 1.72334 4.19835
head 13.2764 1.48634 0.361313
rclavicle 3.36878e-014 -1.67476e-014
rhumerus -48.5409 39.2024 -101.836
rradius 41.9372
rwrist -8.3896
rhand -21.2927 -16.4457
rfingers 7.12502
rthumb 5.09175 -46.3646
lclavicle 3.36878e-014 -1.67476e-014
lhumerus -42.7533 3.59474 72.3599
lradius 48.2041
lwrist -0.13482
lhand -32.3497 36.3745
lfingers 7.12502
lthumb -5.58641 66.2809
rfemur -0.975442 -19.3475 35.6976
rtibia 26.4561
rfoot -34.7079 -25.0946
rtoes -25.3295
lfemur -26.9208 -4.36217 -32.2288
ltibia 8.41782
lfoot -35.7245 27.7732
ltoes -47.9539
1093
root -31.9613 15.7497 3.70764 917.209 -18.148 542.333
lowerback 8.7893 3.86504 -1.40883
upperback -13.1949 4.03543 0.146997
thorax -20.4885 1.56659 0.0738298
lowerneck -12.7802 4.96658 7.67136
upperneck 32.8516 1.505 4.35908
head 13.3186 1.39451 0.427029
rclavicle -6.00369e-014 -1.8077e-015
rhumerus -48.1918 39.0908 -101.748
rradius 41.8795
rwrist -8.31043
rhand -21.2073 -16.5712
rfingers 7.12502
rthumb 5.17417 -46.488
lclavicle -6.00369e-014 -1.8077e-015
lhumerus -42.8738 3.04691 73.3482
lradius 49.5926
lwrist 0.482785
lhand -31.8509 35.9011
lfingers 7.12502
lthumb -5.10474 65.8196
rfemur -0.453765 -18.6681 35.4143
rtibia 26.0592
rfoot -33.6854 -25.3593
rtoes 2.50166
lfemur -26.7815 -4.44162 -32.2951
ltibia 7.78584
lfoot -38.1259 28.3507
ltoes -48.1176
1094
root -32.0337 15.747 3.82518 917.097 -15.6469 542.535
lowerback 8.85115 3.90719 -1.29621
upperback -13.2156 4.09491 0.2313
thorax -20.56 1.5708 0.0967301
lowerneck -12.9095 4.94645 7.5997
upperneck 32.8206 1.44238 4.36566
head 13.3303 1.34352 0.430042
rclavicle 1.39398e-014 -6.88913e-015
rhumerus -47.8358 38.9432 -101.565
rradius 41.4399
rwrist -8.05857
rhand -21.1561 -16.5504
rfingers 7.12502
rthumb 5.22364 -46.466
lclavicle 1.39398e-014 -6.88913e-015
lhumerus -43.3535 2.93215 74.2702
lradius 50.7043
lwrist 0.710247
lhand -31.6356 35.4342
lfingers 7.12502
lthumb -4.89691 65.3576
rfemur -0.0539266 -18.2257 35.2293
rtibia 25.7832
rfoot -32.8893 -25.5132
rtoes -3.31764
lfemur -26.6847 -4.45977 -32.0129
ltibia 7.20292
lfoot -40.4627 28.9708
ltoes -49.4919
1095
root -32.1031 15.7443 3.94698 917.017 -13.2787 542.835
lowerback 8.91514 3.92141 -1.05505
upperback -13.2544 4.13831 0.330604
thorax -20.6459 1.54819 0.0710236
lowerneck -13.0325 4.92615 7.50737
upperneck 32.8211 1.3317 4.48794
head 13.3539 1.28066 0.474332
rclavicle -8.83474e-014 -3.29423e-014
rhumerus -47.3418 38.5231 -101.029
rradius 41.0482
rwrist -8.04108
rhand -21.2284 -16.3347
rfingers 7.12502
rthumb 5.15384 -46.252
lclavicle -8.83474e-014 -3.29423e-014
lhumerus -43.7127 2.57145 75.3696
lradius 51.4222
lwrist 1.25822
lhand -31.6993 35.1723
lfingers 7.12502
lthumb -4.95841 65.0942
rfemur 0.504597 -16.576 35.5289
rtibia 24.4086
rfoot -33.6991 -25.9166
rtoes -4.70982
lfemur -26.7332 -4.80157 -31.4931
ltibia 6.75541
lfoot -43.2143 29.6075
ltoes -47.8934
1096
root -32.1691 15.7421 4.07225 917.002 -11.016 543.085
lowerback 8.8378 3.90874 -0.894508
upperback -13.2255 4.13923 0.434198
thorax -20.5446 1.52615 0.113949
lowerneck -13.2708 4.90781 7.43254
upperneck 32.8317 1.19568 4.65225
head 13.4081 1.21871 0.531257
rclavicle 1.99022e-014 2.60284e-015
rhumerus -46.9101 38.1237 -100.133
rradius 41.3742
rwrist -8.06276
rhand -20.1171 -18.4446
rfingers 7.12502
rthumb 6.22672 -48.3331
lclavicle 1.99022e-014 2.60284e-015
lhumerus -43.806 2.03713 76.5852
lradius 51.741
lwrist 1.56383
lhand -31.3934 34.8287
lfingers 7.12502
lthumb -4.66302 64.7574
rfemur 1.11898 -14.339 35.9363
rtibia 22.4048
rfoot -35.1931 -26.3534
rtoes -3.90535
lfemur -26.8359 -5.47025 -30.8866
ltibia 6.31264
lfoot -46.3189 29.9948
ltoes -48.1953
